<?xml version="1.0" encoding="UTF-8" standalone="no"?>
<!-- Created with Inkscape (http://www.inkscape.org/) -->

<svg
   version="1.1"
   id="svg1"
   width="137.3676"
   height="134.79718"
   viewBox="0 0 137.3676 134.79718"
   sodipodi:docname="amor.jpg"
   xmlns:inkscape="http://www.inkscape.org/namespaces/inkscape"
   xmlns:sodipodi="http://sodipodi.sourceforge.net/DTD/sodipodi-0.dtd"
   xmlns="http://www.w3.org/2000/svg"
   xmlns:svg="http://www.w3.org/2000/svg">
  <defs
     id="defs1">
    <clipPath
       clipPathUnits="userSpaceOnUse"
       id="clipPath20">
      <rect
         style="fill:none;stroke-width:0.820625"
         id="rect21"
         width="137.36453"
         height="134.77867"
         x="91.363281"
         y="92.63723" />
    </clipPath>
    <clipPath
       clipPathUnits="userSpaceOnUse"
       id="clipPath22">
      <rect
         style="fill:none;stroke-width:0.80539"
         id="rect23"
         width="137.40919"
         height="134.81595"
         x="91.359375"
         y="92.621552" />
    </clipPath>
  </defs>
  <sodipodi:namedview
     id="namedview1"
     pagecolor="#ffffff"
     bordercolor="#000000"
     borderopacity="0.25"
     inkscape:showpageshadow="2"
     inkscape:pageopacity="0.0"
     inkscape:pagecheckerboard="0"
     inkscape:deskcolor="#d1d1d1"
     showgrid="false"
     showguides="true"
     inkscape:export-bgcolor="#ffffffe2">
    <inkscape:page
       x="0"
       y="0"
       width="137.3676"
       height="134.79718"
       id="page2"
       margin="0"
       bleed="0" />
  </sodipodi:namedview>
  <g
     inkscape:groupmode="layer"
     inkscape:label="Image"
     id="g1"
     transform="translate(-91.359375,-92.64032)">
    <g
       id="g19"
       clip-path="url(#clipPath20)"
       inkscape:export-filename="../xos/projects/haskell/amortia/amortia.svg"
       inkscape:export-xdpi="139.77408"
       inkscape:export-ydpi="139.77408">
      <path
         style="fill:#1a1a1a"
         d="m 6.9546298,314.42313 c -1.4580638,-0.44652 -2.1374845,-0.81032 -2.08,-1.11374 C 4.9920376,312.68967 9.28,311.24358 9.28,311.8237 c 0,0.23191 -0.288,0.49697 -0.64,0.58902 -0.7639254,0.19977 -0.9232538,1.82728 -0.1788854,1.82728 0.4308423,0 1.0190196,0.58321 0.7709288,0.76442 -0.061624,0.045 -1.08646,-0.21657 -2.2774136,-0.58129 z m 0.3520369,-1.42421 C 7.2477571,312.84368 6.8418217,312.86306 6.4,313.0422 l -0.8,0.32437 0.8,0.2174 c 0.7776392,0.21133 1.1240546,-0.0122 0.9066667,-0.58505 z m -0.7064365,-2.4444 C 6.3141036,310.26839 6.08,309.82857 6.08,309.57714 6.08,309.30286 5.76,309.12 5.28,309.12 c -0.4804271,0 -0.8,-0.18282 -0.8,-0.45767 0,-0.35258 0.5137998,-0.45929 2.2377337,-0.46474 2.147022,-0.007 2.2462216,0.0267 2.4471214,0.8272 0.1151633,0.45885 0.065659,1.06398 -0.1100095,1.34474 -0.4424154,0.70708 -1.8280908,0.81151 -2.4546154,0.18499 z M 8.5801947,309.68 c 0.082911,-0.43501 -0.1127721,-0.56 -0.876731,-0.56 -0.9343854,0 -1.3061159,0.53068 -0.7566319,1.08017 0.4081847,0.40818 1.5241614,0.0528 1.6333629,-0.52017 z m -2.2291222,-2.93959 c -0.6433378,-1.41198 0.2299986,-2.36529 1.8047695,-1.97005 0.9330645,0.23419 1.3979082,1.55421 0.8007092,2.2738 C 8.3076774,307.826 6.7636891,307.646 6.3510725,306.74041 Z M 8.48,306.08438 c 0,-0.70597 -0.9948475,-1.05753 -1.5164807,-0.5359 -0.5378415,0.53784 -0.00734,1.3879 0.7950501,1.27396 C 8.2306253,306.75541 8.48,306.50029 8.48,306.08438 Z m -4,-2.55036 c 0,-0.31362 0.2921324,-0.49402 0.8,-0.49402 0.557037,0 0.8,-0.17493 0.8,-0.576 0,-1.34502 1.7185563,-1.81058 2.6961184,-0.73039 0.3054207,0.33749 0.5077389,0.94949 0.449596,1.36 -0.098169,0.69312 -0.2712954,0.7531 -2.4257144,0.84041 -1.9187498,0.0778 -2.32,0.009 -2.32,-0.4 z m 4.16,-0.77484 c 0,-0.49851 -0.9374564,-1.0763 -1.4359248,-0.88502 C 6.3116355,302.21662 6.6477596,303.04 7.68,303.04 c 0.528,0 0.96,-0.12637 0.96,-0.28082 z M 6.464,300.096 c -0.8079338,-0.80793 -0.2043752,-2.176 0.96,-2.176 0.4291361,0 0.576,0.24959 0.576,0.97889 0,0.5711 0.1333047,0.89649 0.32,0.78111 0.176,-0.10877 0.32,-0.55777 0.32,-0.99777 0,-0.45185 0.1392611,-0.71393 0.32,-0.60223 0.4423248,0.27337 0.4017903,1.55021 -0.064,2.016 -0.2112,0.2112 -0.7584,0.384 -1.216,0.384 -0.4576,0 -1.0048,-0.1728 -1.216,-0.384 z m 0.7642872,-1.45438 c -0.3495678,-0.34957 -0.5892719,0.20635 -0.3382969,0.78458 0.2379766,0.54828 0.2552275,0.54778 0.3878195,-0.0113 0.07632,-0.32177 0.054035,-0.66977 -0.049523,-0.77333 z M 5.184,295.296 c -0.4521391,-0.45214 -0.5173826,-1.856 -0.086256,-1.856 0.163759,0 0.343759,0.31272 0.4,0.69494 0.1531724,1.04096 0.6756052,1.01777 1.287373,-0.0571 0.8710335,-1.53045 2.6894246,-1.02393 2.4394477,0.67952 -0.1506132,1.02635 -0.7728823,1.09061 -0.7575142,0.0782 0.018131,-1.19439 -0.5269107,-1.2471 -1.1721669,-0.11335 C 6.728381,295.71758 5.8455541,295.95755 5.184,295.296 Z M 6.08,292.48 c 0,-0.176 -0.216,-0.32 -0.48,-0.32 -0.264,0 -0.48,-0.144 -0.48,-0.32 0,-0.176 0.204,-0.32 0.4533333,-0.32 0.2493334,0 0.5373334,-0.18 0.64,-0.4 0.1493334,-0.32 0.224,-0.32 0.3733334,0 C 6.8075509,291.59332 8.64,291.66472 8.64,291.2 c 0,-0.176 0.144,-0.32 0.32,-0.32 0.176,0 0.32,0.288 0.32,0.64 0,0.516 -0.2133333,0.64 -1.1011146,0.64 -0.605613,0 -1.1901114,0.144 -1.2988854,0.32 -0.108774,0.176 -0.3332724,0.32 -0.4988854,0.32 C 6.2155016,292.8 6.08,292.656 6.08,292.48 Z m 0.2983369,-2.60048 c -0.5260108,-0.98286 0.08906,-2.19952 1.1119455,-2.19952 1.4279017,0 2.3191724,1.58255 1.4057176,2.496 -0.6374706,0.63747 -2.1106744,0.46399 -2.5176631,-0.29648 z M 8.48,289.12438 c 0,-0.70597 -0.9948475,-1.05753 -1.5164807,-0.5359 -0.5378415,0.53784 -0.00734,1.3879 0.7950501,1.27396 C 8.2306253,289.79541 8.48,289.54029 8.48,289.12438 Z M 6.4112588,286.42104 C 5.9993693,285.65141 5.9817662,284.8 6.3777437,284.8 c 0.163759,0 0.343759,0.324 0.4,0.72 0.1545687,1.08834 1.4586593,1.16449 1.7256362,0.10077 C 8.7284308,284.7241 9.28,284.49702 9.28,285.30104 c 0,1.02977 -0.6525185,1.73896 -1.6,1.73896 -0.5993555,0 -1.0569593,-0.22324 -1.2687412,-0.61896 z M 4.48,283.68 c 0,-0.35891 0.3812447,-0.48 1.511202,-0.48 1.4589985,0 1.486634,-0.0172 0.8,-0.49815 C 6.4000409,282.42787 6.08,281.96387 6.08,281.67074 c 0,-0.44772 0.1110389,-0.42192 0.6942628,0.1613 l 0.6942627,0.69426 0.9057373,-0.64494 C 9.080378,281.37856 9.28,281.33841 9.28,281.69918 c 0,0.25452 -0.324,0.68877 -0.72,0.965 l -0.72,0.50225 0.72,0.0168 c 0.4192068,0.01 0.72,0.21731 0.72,0.49678 0,0.384 -0.48,0.48 -2.4,0.48 -1.92,0 -2.4,-0.096 -2.4,-0.48 z m 0,-4.64 c 0,-0.19088 1.2266667,-0.32 3.04,-0.32 1.8133333,0 3.04,0.12912 3.04,0.32 0,0.19088 -1.2266667,0.32 -3.04,0.32 -1.8133333,0 -3.04,-0.12912 -3.04,-0.32 z m 2.88,-3.2 c 0,-0.22199 -0.2158993,-0.30562 -0.5037764,-0.19516 -0.6367127,0.24433 -1.6106564,-0.61982 -1.0133665,-0.89913 0.3153222,-0.14745 0.3147336,-0.22417 -0.00286,-0.37238 -0.22,-0.10266 -0.4,-0.32716 -0.4,-0.49888 0,-0.17172 0.1317009,-0.23083 0.2926687,-0.13134 0.1609678,0.0995 0.366005,-2e-5 0.4556381,-0.22112 0.1266912,-0.3125 0.2316626,-0.30382 0.4715542,0.039 0.1697217,0.24255 0.4668203,0.3432 0.6602192,0.22367 0.193399,-0.11953 0.6774987,0.0993 1.0757771,0.4862 0.5531786,0.53743 0.5919313,0.65698 0.1641427,0.50637 -0.308,-0.10843 -0.56,-0.0648 -0.56,0.0969 0,0.16173 0.252,0.44083 0.56,0.62023 0.308,0.17939 0.3917774,0.33055 0.186172,0.3359 -0.2056054,0.005 -0.6016054,0.0971 -0.88,0.20397 C 7.5759115,276.14562 7.36,276.06277 7.36,275.84 Z m 0,-0.96 c 0,-0.176 -0.144,-0.32 -0.32,-0.32 -0.176,0 -0.32,0.144 -0.32,0.32 0,0.176 0.144,0.32 0.32,0.32 0.176,0 0.32,-0.144 0.32,-0.32 z m -1.52,-2.14583 c -0.5826152,-0.11222 -0.72,-0.35175 -0.72,-1.25531 0,-0.66294 0.1300187,-1.03627 0.32,-0.91886 0.176,0.10877 0.32,0.46877 0.32,0.8 0,0.98788 0.5688162,1.03585 1.0225434,0.0862 0.5723431,-1.19786 1.7332464,-1.34897 2.2164282,-0.2885 0.3662262,0.80378 0.210247,1.80226 -0.2815431,1.80226 -0.1444618,0 -0.2569812,-0.38194 -0.2500431,-0.84876 0.018276,-1.22968 -0.7484558,-1.32166 -1.1932908,-0.14316 -0.2059237,0.54556 -0.4508365,0.97231 -0.5442506,0.94834 C 6.6364298,272.89245 6.236,272.81044 5.84,272.73417 Z m 0,-3.2 c -0.5826152,-0.11222 -0.72,-0.35175 -0.72,-1.25531 0,-0.66294 0.1300187,-1.03627 0.32,-0.91886 0.176,0.10877 0.32,0.46877 0.32,0.8 0,0.98788 0.5688162,1.03585 1.0225434,0.0862 0.5723431,-1.19786 1.7332464,-1.34897 2.2164282,-0.2885 0.3662262,0.80378 0.210247,1.80226 -0.2815431,1.80226 -0.1444618,0 -0.2569812,-0.38194 -0.2500431,-0.84876 0.018276,-1.22968 -0.7484558,-1.32166 -1.1932908,-0.14316 -0.2059237,0.54556 -0.4508365,0.97231 -0.5442506,0.94834 C 6.6364298,269.69245 6.236,269.61044 5.84,269.53417 Z M 5.4562647,266.0996 c -0.6104469,-0.73555 -0.1556088,-2.05243 0.79094,-2.29 0.9102864,-0.22847 2.1754079,0.46628 2.7274629,1.49781 0.5032086,0.94025 0.01845,1.24594 -0.5752242,0.36273 l -0.4905968,-0.72986 -0.3624335,0.72986 c -0.4374489,0.88092 -1.5292827,1.10526 -2.0901484,0.42946 z m 1.4762689,-0.68111 C 7.1847367,264.76126 6.6785428,264.27008 6.1106955,264.62103 5.627087,264.91992 5.849824,265.92 6.4,265.92 c 0.1870474,0 0.4266875,-0.22568 0.5325336,-0.50151 z M 5.401349,262.51343 c -0.1962342,-0.23645 -0.2591294,-0.7984 -0.1417178,-1.2662 0.1809374,-0.72091 0.3393964,-0.81542 1.1090669,-0.66149 0.4938827,0.0988 1.0388893,0.0387 1.2111257,-0.13356 0.8555495,-0.85555 2.1913262,1.13044 1.4009119,2.08283 -0.4728762,0.56979 -3.1017531,0.55393 -3.5793867,-0.0216 z M 6.72,261.58111 c 0,-0.52802 -0.5057424,-0.61723 -0.8,-0.14111 -0.2609617,0.42224 0.1216667,1.02146 0.5021115,0.78633 C 6.5859502,262.12508 6.72,261.83473 6.72,261.58111 Z m 1.8634637,0.0724 c 0.069762,-0.3597 -0.1126522,-0.53348 -0.56,-0.53348 -0.364905,0 -0.6634637,0.192 -0.6634637,0.42667 0,0.98007 1.0365522,1.07057 1.2234637,0.10681 z m -3.3405704,-2.59479 c -0.3572143,-0.93088 0.02618,-1.6183 0.910954,-1.63333 0.4741509,-0.008 0.9635061,-0.11605 1.0874559,-0.24 0.4360855,-0.43608 1.3798353,-0.21853 1.707438,0.3936 0.4597829,0.85911 0.4144356,1.94104 -0.081356,1.94104 -0.236281,0 -0.4072237,-0.36272 -0.4,-0.84876 0.015455,-1.03989 -0.7615731,-1.39907 -1.0058493,-0.46495 C 7.2596984,258.97811 6.72,259.1191 6.72,258.4 c 0,-0.264 -0.2327871,-0.48 -0.5173047,-0.48 -0.3792396,0 -0.4764888,0.21351 -0.364375,0.8 0.1627885,0.85157 -0.2980298,1.1137 -0.595427,0.33869 z m 0.2133714,-3.19909 c -0.6104469,-0.73555 -0.1556088,-2.05243 0.79094,-2.29 0.9102864,-0.22847 2.1754079,0.46628 2.7274629,1.49781 0.5032086,0.94025 0.01845,1.24594 -0.5752242,0.36273 l -0.4905968,-0.72986 -0.3624335,0.72986 c -0.4374489,0.88092 -1.5292827,1.10526 -2.0901484,0.42946 z m 1.4762689,-0.68111 C 7.1847367,254.52126 6.6785428,254.03008 6.1106955,254.38103 5.627087,254.67992 5.849824,255.68 6.4,255.68 c 0.1870474,0 0.4266875,-0.22568 0.5325336,-0.50151 z M 6.314283,251.98846 C 4.6700503,250.87118 4.766302,250.33488 6.64,250.17363 c 0.836,-0.0719 1.772,-0.0696 2.08,0.005 0.6829081,0.16574 0.749925,1.02127 0.08,1.02127 -0.2986667,0 -0.48,0.30222 -0.48,0.8 0,1.01314 -0.5020237,1.01025 -2.005717,-0.0115 z M 7.68,251.7173 c 0,-0.24348 -0.3954115,-0.51828 -0.8786921,-0.61066 l -0.8786922,-0.16798 0.754143,0.61067 C 7.5764375,252.27785 7.68,252.29519 7.68,251.7173 Z m -2.4371067,-2.89861 c -0.3572143,-0.93088 0.02618,-1.6183 0.910954,-1.63333 0.4741509,-0.008 0.9635061,-0.11605 1.0874559,-0.24 0.8256624,-0.82566 2.383578,0.65433 1.930807,1.83423 -0.3029238,0.78941 -0.718581,0.58394 -0.7047248,-0.34835 0.015455,-1.03989 -0.7615731,-1.39907 -1.0058493,-0.46495 C 7.2596984,248.73811 6.72,248.8791 6.72,248.16 c 0,-0.264 -0.2327871,-0.48 -0.5173047,-0.48 -0.3792396,0 -0.4764888,0.21351 -0.364375,0.8 0.1627885,0.85157 -0.2980298,1.1137 -0.595427,0.33869 z m 0.2133714,-3.19909 c -0.6104469,-0.73555 -0.1556088,-2.05243 0.79094,-2.29 0.9102864,-0.22847 2.1754079,0.46628 2.7274629,1.49781 0.5032086,0.94025 0.01845,1.24594 -0.5752242,0.36273 l -0.4905968,-0.72986 -0.3624335,0.72986 c -0.4374489,0.88092 -1.5292827,1.10526 -2.0901484,0.42946 z m 1.4762689,-0.68111 C 7.1847367,244.28126 6.6785428,243.79008 6.1106955,244.14103 5.627087,244.43992 5.849824,245.44 6.4,245.44 c 0.1870474,0 0.4266875,-0.22568 0.5325336,-0.50151 z M 137.98172,227.19278 c -14.10887,-1.94333 -23.97859,-14.30584 -24.05184,-30.12661 -0.0148,-3.20731 0.17313,-3.42774 1.53357,-1.79832 2.52481,3.02399 8.05628,8.45079 10.74897,10.54557 3.24064,2.52105 7.14065,4.5155 9.92206,5.0741 4.94915,0.99396 9.73617,-1.26667 13.73258,-6.48507 4.90551,-6.40548 7.81549,-12.91004 15.56974,-34.80245 5.0802,-14.3428 7.80908,-20.57648 11.31293,-25.84255 9.72338,-14.61361 23.9994,-19.03754 36.9468,-11.44927 2.63546,1.5446 6.6595,5.40523 8.67903,8.32658 4.8147,6.96471 7.04545,16.04083 6.16185,25.07038 -1.07396,10.97494 -5.36715,19.85893 -13.48019,27.89486 -8.39587,8.31608 -20.41893,13.84961 -32.33722,14.883 l -2.4,0.20809 2.4,-1.39912 c 9.5621,-5.57439 16.02918,-12.06947 21.27982,-21.37197 2.25738,-3.99938 3.83223,-7.89357 4.96269,-12.27145 1.30542,-5.05546 1.69833,-8.31176 1.52312,-12.623 -0.22944,-5.64558 -1.67925,-8.7514 -4.83728,-10.36251 -1.0574,-0.53945 -1.70651,-0.63267 -3.57179,-0.51296 -2.86331,0.18376 -5.0397,1.2813 -7.55124,3.80805 -3.54881,3.57029 -5.08173,7.16212 -10.56791,24.76187 -6.93509,22.24786 -11.14432,30.90908 -18.6186,38.31094 -7.40437,7.33264 -18.35795,11.40137 -27.35709,10.16184 z m -30.80435,-42.0246 C 99.269555,178.61958 93.945811,169.58155 91.975368,159.36 c -0.792349,-4.11026 -0.80529,-11.89044 -0.02608,-15.68 2.279521,-11.08608 8.519322,-20.98563 17.454192,-27.69136 5.12388,-3.84554 12.37233,-7.07028 18.80795,-8.36741 4.01556,-0.80936 13.5942,-0.80999 17.38857,-10e-4 3.60888,0.76931 8.70531,2.48389 11.41124,3.83906 1.73856,0.87069 2.68421,1.12695 4.5975,1.24587 3.89245,0.24193 7.66474,2.63906 9.78488,6.21786 0.5528,0.93315 1.41463,1.68736 2.92524,2.56 2.64436,1.52758 5.07464,3.80846 5.38546,5.0544 0.47515,1.90469 -2.32059,5.7263 -5.04724,6.89928 -1.60344,0.68978 -1.84795,0.70864 -4.73392,0.36526 -1.67374,-0.19915 -4.69916,-0.50615 -6.72316,-0.68223 -5.93121,-0.51598 -7.62826,-1.19269 -10.92889,-4.35799 -1.17088,-1.12288 -2.25088,-2.04172 -2.4,-2.04186 -0.14911,-1.5e-4 -1.34911,-0.22516 -2.66667,-0.50003 -10.21465,-2.13098 -19.92896,-0.4977 -27.46069,4.617 -7.79713,5.29493 -13.28429,14.73988 -14.99075,25.80329 -0.67679,4.38777 -0.42126,12.84515 0.52106,17.24608 0.76953,3.59395 2.28018,8.48592 3.41014,11.04311 0.42025,0.95105 0.71604,1.77724 0.65731,1.83596 -0.0587,0.0587 -1.03259,-0.65991 -2.16414,-1.59697 z M 201.92,126.46828 c 0,-0.49243 -7.24233,-7.45013 -9.7504,-9.36719 -13.8723,-10.60343 -30.8712,-14.90103 -48.53903,-12.27147 l -1.39057,0.20697 2.4,-2.45055 c 9.896,-10.104439 24.17629,-12.708152 37.83075,-6.897654 8.92119,3.796305 16.4092,12.408614 18.79152,21.613004 1.07842,4.16658 1.62362,9.41861 0.97773,9.41861 -0.176,0 -0.32,-0.11327 -0.32,-0.25172 z"
         id="path19"
         clip-path="url(#clipPath22)"
         inkscape:export-filename="path19.svg"
         inkscape:export-xdpi="139.77408"
         inkscape:export-ydpi="139.77408" />
    </g>
  </g>
</svg>
