<?xml version="1.0" encoding="UTF-8" standalone="no"?>
<!-- Created with Inkscape (http://www.inkscape.org/) -->

<svg
   version="1.1"
   id="svg1"
   width="207.76363"
   height="169.88036"
   viewBox="0 0 207.76363 169.88036"
   xmlns="http://www.w3.org/2000/svg"
   xmlns:svg="http://www.w3.org/2000/svg">
  <defs
     id="defs1" />
  <g
     id="g1"
     transform="translate(-32.036369,-38.407539)">
    <path
       style="fill:#000000"
       d="M 118.33276,206.97112 C 93.233396,203.2892 70.059495,192.07506 58.960888,178.24033 l -3.972101,-4.95134 -5.678816,2.27222 c -4.357224,1.74341 -6.111332,1.91325 -7.537313,0.72979 -3.239724,-2.68873 -2.101498,-6.49579 2.808169,-9.39256 5.02808,-2.96664 5.420958,-3.92257 3.266583,-7.94806 -1.210282,-2.26143 -2.291693,-2.4978 -7.977096,-1.74361 -5.545684,0.73567 -6.718416,0.50398 -7.478779,-1.47749 -1.344621,-3.50403 1.18355,-6.5019 6.653242,-7.88933 4.708715,-1.1944 4.870148,-1.43636 4.892535,-7.33334 0.03422,-9.01295 3.300833,-22.85277 7.218919,-30.58474 3.026237,-5.97199 3.287281,-7.49906 2.135411,-12.491907 -2.063327,-8.943587 -1.661155,-34.037745 0.690337,-43.074725 5.673844,-21.805056 14.731591,-21.32604 38.365647,2.028954 l 13.500754,13.341353 9.64334,-1.991886 c 12.20285,-2.520567 29.07809,-2.512802 41.0294,0.01888 l 9.27364,1.964463 8.72636,-9.081119 c 10.98189,-11.428341 21.31252,-19.554028 27.42469,-21.571225 6.22964,-2.055966 10.5586,0.658307 14.20805,8.908488 4.6907,10.604107 5.66149,40.143697 1.72671,52.541094 -0.37934,1.1952 1.05216,5.71034 3.18113,10.03364 4.5008,9.13983 6.85244,19.10051 6.85244,29.02437 0,6.9786 0.0374,7.04202 4.86939,8.2677 5.44651,1.38155 7.99869,4.38315 6.67029,7.84491 -0.74469,1.94061 -1.93683,2.16084 -7.53169,1.39135 -6.33007,-0.87061 -6.71119,-0.74527 -7.99414,2.62915 -0.74095,1.94884 -1.34718,3.74502 -1.34718,3.99151 0,0.24649 2.1,1.6872 4.66667,3.20157 4.90967,2.89677 6.04789,6.70383 2.80817,9.39256 -1.42496,1.18261 -3.15027,1.02555 -7.39604,-0.67327 l -5.53754,-2.21568 -7.548,7.60843 c -20.83022,20.997 -56.29347,31.08727 -91.24131,25.96064 z m -6.99589,-46.46284 c 11.25924,-6.45807 16.57728,-15.50644 16.57728,-28.20541 0,-9.44758 -2.55664,-16.24767 -8.40091,-22.3446 -13.2244,-13.79611 -34.500429,-13.801647 -46.958343,-0.0122 -6.409377,7.09441 -8.640737,12.72287 -8.640737,21.79571 0,18.84849 13.809791,32.68329 32.595125,32.65417 6.457455,-0.01 9.422545,-0.78743 14.827585,-3.88765 z m -25.422711,-5.98965 c -12.703029,-5.6701 -17.695938,-21.35146 -10.89997,-34.23381 8.576548,-16.2576 34.135041,-15.93847 42.105231,0.52574 8.31073,17.16767 -2.90589,35.71562 -21.49577,35.54569 -3.14022,-0.0287 -7.509491,-0.85563 -9.709491,-1.83762 z m 104.751741,6.22314 c 21.12894,-10.71556 24.18274,-38.42163 5.94855,-53.96908 -3.38227,-2.88391 -15.79023,-7.697585 -19.84165,-7.697585 -1.67272,0 -6.02643,0.88648 -9.67489,1.969965 -28.08487,8.34031 -31.66384,46.91695 -5.55959,59.92525 9.58975,4.77877 19.40602,4.70175 29.12758,-0.22855 z m -25.32362,-6.66873 c -13.83444,-7.05439 -17.78334,-25.7596 -7.83111,-37.09455 5.63553,-6.41852 10.32793,-8.57005 18.6909,-8.57005 8.85274,0 15.14746,3.20623 20.15304,10.265 8.56277,12.07504 2.5571,30.99521 -11.52776,36.31684 -5.61292,2.12071 -14.33226,1.71025 -19.48507,-0.91724 z"
       id="path1" />
  </g>
</svg>
